<?xml version="1.0" standalone="no"?>
<!DOCTYPE svg PUBLIC "-//W3C//DTD SVG 1.1//EN" "http://www.w3.org/Graphics/SVG/1.1/DTD/svg11.dtd">
<svg width="270mm" height="254mm" viewBox="-95 -116 270 254" xmlns="http://www.w3.org/2000/svg" version="1.1">
<title>OpenSCAD Model</title>
<path d="
M -69,-49 L -51,-49 L -51,-44 L -29,-44 L -29,-49 L -11,-49
 L -11,-44 L 11,-44 L 11,-49 L 29,-49 L 29,-44 L 51,-44
 L 51,-49 L 69,-49 L 69,-44 L 95,-44 L 95,-59 L 90,-59
 L 90,-73 L 95,-73 L 95,-87 L 90,-87 L 90,-101 L 95,-101
 L 95,-116 L 69,-116 L 69,-111 L 51,-111 L 51,-116 L 29,-116
 L 29,-111 L 11,-111 L 11,-116 L -11,-116 L -11,-111 L -29,-111
 L -29,-116 L -51,-116 L -51,-111 L -69,-111 L -69,-116 L -95,-116
 L -95,-101 L -90,-101 L -90,-87 L -95,-87 L -95,-73 L -90,-73
 L -90,-59 L -95,-59 L -95,-44 L -69,-44 z
M -0.312134,-111.931 L -0.612289,-112.022 L -0.888901,-112.17 L -1.13136,-112.369 L -1.33034,-112.611 L -1.4782,-112.888
 L -1.56924,-113.188 L -1.59999,-113.5 L -1.56924,-113.812 L -1.4782,-114.112 L -1.33034,-114.389 L -1.13136,-114.631
 L -0.888901,-114.83 L -0.612289,-114.978 L -0.312134,-115.069 L 0,-115.1 L 0.312134,-115.069 L 0.612289,-114.978
 L 0.888901,-114.83 L 1.13136,-114.631 L 1.33034,-114.389 L 1.4782,-114.112 L 1.56924,-113.812 L 1.59999,-113.5
 L 1.56924,-113.188 L 1.4782,-112.888 L 1.33034,-112.611 L 1.13136,-112.369 L 0.888901,-112.17 L 0.612289,-112.022
 L 0.312134,-111.931 L 0,-111.9 z
M -80.3121,-111.931 L -80.6123,-112.022 L -80.8889,-112.17 L -81.1314,-112.369 L -81.3303,-112.611 L -81.4782,-112.888
 L -81.5692,-113.188 L -81.6,-113.5 L -81.5692,-113.812 L -81.4782,-114.112 L -81.3303,-114.389 L -81.1314,-114.631
 L -80.8889,-114.83 L -80.6123,-114.978 L -80.3121,-115.069 L -80,-115.1 L -79.6879,-115.069 L -79.3877,-114.978
 L -79.1111,-114.83 L -78.8686,-114.631 L -78.6696,-114.389 L -78.5218,-114.112 L -78.4307,-113.812 L -78.4,-113.5
 L -78.4307,-113.188 L -78.5218,-112.888 L -78.6696,-112.611 L -78.8686,-112.369 L -79.1111,-112.17 L -79.3877,-112.022
 L -79.6879,-111.931 L -80,-111.9 z
M 79.6879,-111.931 L 79.3877,-112.022 L 79.1111,-112.17 L 78.8686,-112.369 L 78.6696,-112.611 L 78.5218,-112.888
 L 78.4307,-113.188 L 78.4,-113.5 L 78.4307,-113.812 L 78.5218,-114.112 L 78.6696,-114.389 L 78.8686,-114.631
 L 79.1111,-114.83 L 79.3877,-114.978 L 79.6879,-115.069 L 80,-115.1 L 80.3121,-115.069 L 80.6123,-114.978
 L 80.8889,-114.83 L 81.1314,-114.631 L 81.3303,-114.389 L 81.4782,-114.112 L 81.5692,-113.812 L 81.6,-113.5
 L 81.5692,-113.188 L 81.4782,-112.888 L 81.3303,-112.611 L 81.1314,-112.369 L 80.8889,-112.17 L 80.6123,-112.022
 L 80.3121,-111.931 L 80,-111.9 z
M -75.7,-59 L -75.7,-62.5 L -79.205,-62.5 L -79.205,-71.5 L -75.7,-71.5 L -75.7,-88.5
 L -79.205,-88.5 L -79.205,-97.5 L -75.7,-97.5 L -75.7,-101 L -68.5,-101 L -68.5,-87.7233
 L -63.1233,-93.1 L -48.8767,-93.1 L -43.5,-87.7233 L -43.5,-101 L -36.3,-101 L -36.3,-97.5
 L -32.795,-97.5 L -32.795,-88.5 L -36.3,-88.5 L -36.3,-71.5 L -32.795,-71.5 L -32.795,-62.5
 L -36.3,-62.5 L -36.3,-59 L -43.5,-59 L -43.5,-72.2767 L -48.8767,-66.9 L -63.1233,-66.9
 L -68.5,-72.2767 L -68.5,-59 z
M 38.5,-73 L 38.5,-87 L 63.5,-87 L 63.5,-73 z
M -0.312134,-44.9308 L -0.612289,-45.0218 L -0.888901,-45.1697 L -1.13136,-45.3686 L -1.33034,-45.6111 L -1.4782,-45.8877
 L -1.56924,-46.1879 L -1.59999,-46.5 L -1.56924,-46.8121 L -1.4782,-47.1123 L -1.33034,-47.3889 L -1.13136,-47.6314
 L -0.888901,-47.8304 L -0.612289,-47.9782 L -0.312134,-48.0693 L 0,-48.1 L 0.312134,-48.0693 L 0.612289,-47.9782
 L 0.888901,-47.8304 L 1.13136,-47.6314 L 1.33034,-47.3889 L 1.4782,-47.1123 L 1.56924,-46.8121 L 1.59999,-46.5
 L 1.56924,-46.1879 L 1.4782,-45.8877 L 1.33034,-45.6111 L 1.13136,-45.3686 L 0.888901,-45.1697 L 0.612289,-45.0218
 L 0.312134,-44.9308 L 0,-44.9 z
M -80.3121,-44.9308 L -80.6123,-45.0218 L -80.8889,-45.1697 L -81.1314,-45.3686 L -81.3303,-45.6111 L -81.4782,-45.8877
 L -81.5692,-46.1879 L -81.6,-46.5 L -81.5692,-46.8121 L -81.4782,-47.1123 L -81.3303,-47.3889 L -81.1314,-47.6314
 L -80.8889,-47.8304 L -80.6123,-47.9782 L -80.3121,-48.0693 L -80,-48.1 L -79.6879,-48.0693 L -79.3877,-47.9782
 L -79.1111,-47.8304 L -78.8686,-47.6314 L -78.6696,-47.3889 L -78.5218,-47.1123 L -78.4307,-46.8121 L -78.4,-46.5
 L -78.4307,-46.1879 L -78.5218,-45.8877 L -78.6696,-45.6111 L -78.8686,-45.3686 L -79.1111,-45.1697 L -79.3877,-45.0218
 L -79.6879,-44.9308 L -80,-44.9 z
M 79.6879,-44.9308 L 79.3877,-45.0218 L 79.1111,-45.1697 L 78.8686,-45.3686 L 78.6696,-45.6111 L 78.5218,-45.8877
 L 78.4307,-46.1879 L 78.4,-46.5 L 78.4307,-46.8121 L 78.5218,-47.1123 L 78.6696,-47.3889 L 78.8686,-47.6314
 L 79.1111,-47.8304 L 79.3877,-47.9782 L 79.6879,-48.0693 L 80,-48.1 L 80.3121,-48.0693 L 80.6123,-47.9782
 L 80.8889,-47.8304 L 81.1314,-47.6314 L 81.3303,-47.3889 L 81.4782,-47.1123 L 81.5692,-46.8121 L 81.6,-46.5
 L 81.5692,-46.1879 L 81.4782,-45.8877 L 81.3303,-45.6111 L 81.1314,-45.3686 L 80.8889,-45.1697 L 80.6123,-45.0218
 L 80.3121,-44.9308 L 80,-44.9 z
M 132,-51 L 146,-51 L 146,-46 L 160,-46 L 160,-51 L 170,-51
 L 170,-57.6 L 175,-57.6 L 175,-64.2 L 170,-64.2 L 170,-70.8 L 175,-70.8
 L 175,-77.4 L 170,-77.4 L 170,-84 L 160,-84 L 160,-89 L 146,-89
 L 146,-84 L 132,-84 L 132,-89 L 118,-89 L 118,-84 L 108,-84
 L 108,-77.4 L 103,-77.4 L 103,-70.8 L 108,-70.8 L 108,-64.2 L 103,-64.2
 L 103,-57.6 L 108,-57.6 L 108,-51 L 118,-51 L 118,-46 L 132,-46
 z
M 132,-0 L 146,-0 L 146,5 L 160,5 L 160,-0 L 170,-0
 L 170,-6.59999 L 175,-6.59999 L 175,-13.2 L 170,-13.2 L 170,-19.8 L 175,-19.8
 L 175,-26.4 L 170,-26.4 L 170,-33 L 160,-33 L 160,-38 L 146,-38
 L 146,-33 L 132,-33 L 132,-38 L 118,-38 L 118,-33 L 108,-33
 L 108,-26.4 L 103,-26.4 L 103,-19.8 L 108,-19.8 L 108,-13.2 L 103,-13.2
 L 103,-6.59999 L 108,-6.59999 L 108,-0 L 118,-0 L 118,5 L 132,5
 z
M -69,31 L -51,31 L -51,36 L -29,36 L -29,31 L -11,31
 L -11,36 L 11,36 L 11,31 L 29,31 L 29,36 L 51,36
 L 51,31 L 69,31 L 69,36 L 95,36 L 95,21 L 90,21
 L 90,7 L 95,7 L 95,-7 L 90,-7 L 90,-21 L 95,-21
 L 95,-36 L 69,-36 L 69,-31 L 51,-31 L 51,-36 L 29,-36
 L 29,-31 L 11,-31 L 11,-36 L -11,-36 L -11,-31 L -29,-31
 L -29,-36 L -51,-36 L -51,-31 L -69,-31 L -69,-36 L -95,-36
 L -95,-21 L -90,-21 L -90,-7 L -95,-7 L -95,7 L -90,7
 L -90,21 L -95,21 L -95,36 L -69,36 z
M -68.3316,-22.1327 L -68.6506,-22.2294 L -68.9445,-22.3865 L -69.2021,-22.5979 L -69.4135,-22.8555 L -69.5706,-23.1494
 L -69.6673,-23.4683 L -69.7,-23.8 L -69.6673,-24.1317 L -69.5706,-24.4506 L -69.4135,-24.7445 L -69.2021,-25.0021
 L -68.9445,-25.2135 L -68.6506,-25.3706 L -68.3316,-25.4673 L -68,-25.5 L -67.6683,-25.4673 L -67.3494,-25.3706
 L -67.0555,-25.2135 L -66.7979,-25.0021 L -66.5865,-24.7445 L -66.4294,-24.4506 L -66.3327,-24.1317 L -66.3,-23.8
 L -66.3327,-23.4683 L -66.4294,-23.1494 L -66.5865,-22.8555 L -66.7979,-22.5979 L -67.0555,-22.3865 L -67.3494,-22.2294
 L -67.6683,-22.1327 L -68,-22.1 z
M -44.3316,-22.1327 L -44.6506,-22.2294 L -44.9445,-22.3865 L -45.2021,-22.5979 L -45.4135,-22.8555 L -45.5706,-23.1494
 L -45.6673,-23.4683 L -45.7,-23.8 L -45.6673,-24.1317 L -45.5706,-24.4506 L -45.4135,-24.7445 L -45.2021,-25.0021
 L -44.9445,-25.2135 L -44.6506,-25.3706 L -44.3316,-25.4673 L -44,-25.5 L -43.6683,-25.4673 L -43.3494,-25.3706
 L -43.0555,-25.2135 L -42.7979,-25.0021 L -42.5865,-24.7445 L -42.4294,-24.4506 L -42.3327,-24.1317 L -42.3,-23.8
 L -42.3327,-23.4683 L -42.4294,-23.1494 L -42.5865,-22.8555 L -42.7979,-22.5979 L -43.0555,-22.3865 L -43.3494,-22.2294
 L -43.6683,-22.1327 L -44,-22.1 z
M 83.1683,-17.8327 L 82.8494,-17.9294 L 82.5555,-18.0865 L 82.2979,-18.2979 L 82.0865,-18.5555 L 81.9294,-18.8494
 L 81.8327,-19.1683 L 81.8,-19.5 L 81.8327,-19.8316 L 81.9294,-20.1506 L 82.0865,-20.4445 L 82.2979,-20.7021
 L 82.5555,-20.9135 L 82.8494,-21.0706 L 83.1683,-21.1673 L 83.5,-21.2 L 83.8316,-21.1673 L 84.1506,-21.0706
 L 84.4445,-20.9135 L 84.7021,-20.7021 L 84.9135,-20.4445 L 85.0706,-20.1506 L 85.1673,-19.8316 L 85.2,-19.5
 L 85.1673,-19.1683 L 85.0706,-18.8494 L 84.9135,-18.5555 L 84.7021,-18.2979 L 84.4445,-18.0865 L 84.1506,-17.9294
 L 83.8316,-17.8327 L 83.5,-17.8 z
M -24.8316,-17.8327 L -25.1506,-17.9294 L -25.4445,-18.0865 L -25.7021,-18.2979 L -25.9135,-18.5555 L -26.0706,-18.8494
 L -26.1673,-19.1683 L -26.2,-19.5 L -26.1673,-19.8316 L -26.0706,-20.1506 L -25.9135,-20.4445 L -25.7021,-20.7021
 L -25.4445,-20.9135 L -25.1506,-21.0706 L -24.8316,-21.1673 L -24.5,-21.2 L -24.1683,-21.1673 L -23.8494,-21.0706
 L -23.5555,-20.9135 L -23.2979,-20.7021 L -23.0865,-20.4445 L -22.9294,-20.1506 L -22.8327,-19.8316 L -22.8,-19.5
 L -22.8327,-19.1683 L -22.9294,-18.8494 L -23.0865,-18.5555 L -23.2979,-18.2979 L -23.5555,-18.0865 L -23.8494,-17.9294
 L -24.1683,-17.8327 L -24.5,-17.8 z
M -24.8316,21.1673 L -25.1506,21.0706 L -25.4445,20.9135 L -25.7021,20.7021 L -25.9135,20.4445 L -26.0706,20.1506
 L -26.1673,19.8316 L -26.2,19.5 L -26.1673,19.1683 L -26.0706,18.8494 L -25.9135,18.5555 L -25.7021,18.2979
 L -25.4445,18.0865 L -25.1506,17.9294 L -24.8316,17.8327 L -24.5,17.8 L -24.1683,17.8327 L -23.8494,17.9294
 L -23.5555,18.0865 L -23.2979,18.2979 L -23.0865,18.5555 L -22.9294,18.8494 L -22.8327,19.1683 L -22.8,19.5
 L -22.8327,19.8316 L -22.9294,20.1506 L -23.0865,20.4445 L -23.2979,20.7021 L -23.5555,20.9135 L -23.8494,21.0706
 L -24.1683,21.1673 L -24.5,21.2 z
M 83.1683,21.1673 L 82.8494,21.0706 L 82.5555,20.9135 L 82.2979,20.7021 L 82.0865,20.4445 L 81.9294,20.1506
 L 81.8327,19.8316 L 81.8,19.5 L 81.8327,19.1683 L 81.9294,18.8494 L 82.0865,18.5555 L 82.2979,18.2979
 L 82.5555,18.0865 L 82.8494,17.9294 L 83.1683,17.8327 L 83.5,17.8 L 83.8316,17.8327 L 84.1506,17.9294
 L 84.4445,18.0865 L 84.7021,18.2979 L 84.9135,18.5555 L 85.0706,18.8494 L 85.1673,19.1683 L 85.2,19.5
 L 85.1673,19.8316 L 85.0706,20.1506 L 84.9135,20.4445 L 84.7021,20.7021 L 84.4445,20.9135 L 84.1506,21.0706
 L 83.8316,21.1673 L 83.5,21.2 z
M -68.3316,25.4673 L -68.6506,25.3706 L -68.9445,25.2135 L -69.2021,25.0021 L -69.4135,24.7445 L -69.5706,24.4506
 L -69.6673,24.1317 L -69.7,23.8 L -69.6673,23.4683 L -69.5706,23.1494 L -69.4135,22.8555 L -69.2021,22.5979
 L -68.9445,22.3865 L -68.6506,22.2294 L -68.3316,22.1327 L -68,22.1 L -67.6683,22.1327 L -67.3494,22.2294
 L -67.0555,22.3865 L -66.7979,22.5979 L -66.5865,22.8555 L -66.4294,23.1494 L -66.3327,23.4683 L -66.3,23.8
 L -66.3327,24.1317 L -66.4294,24.4506 L -66.5865,24.7445 L -66.7979,25.0021 L -67.0555,25.2135 L -67.3494,25.3706
 L -67.6683,25.4673 L -68,25.5 z
M -44.3316,25.4673 L -44.6506,25.3706 L -44.9445,25.2135 L -45.2021,25.0021 L -45.4135,24.7445 L -45.5706,24.4506
 L -45.6673,24.1317 L -45.7,23.8 L -45.6673,23.4683 L -45.5706,23.1494 L -45.4135,22.8555 L -45.2021,22.5979
 L -44.9445,22.3865 L -44.6506,22.2294 L -44.3316,22.1327 L -44,22.1 L -43.6683,22.1327 L -43.3494,22.2294
 L -43.0555,22.3865 L -42.7979,22.5979 L -42.5865,22.8555 L -42.4294,23.1494 L -42.3327,23.4683 L -42.3,23.8
 L -42.3327,24.1317 L -42.4294,24.4506 L -42.5865,24.7445 L -42.7979,25.0021 L -43.0555,25.2135 L -43.3494,25.3706
 L -43.6683,25.4673 L -44,25.5 z
M -51,82 L -29,82 L -29,87 L -11,87 L -11,82 L 11,82
 L 11,87 L 29,87 L 29,82 L 51,82 L 51,87 L 69,87
 L 69,82 L 95,82 L 95,75.4 L 90,75.4 L 90,68.8 L 95,68.8
 L 95,62.2 L 90,62.2 L 90,55.6 L 95,55.6 L 95,49 L 69,49
 L 69,44 L 51,44 L 51,49 L 29,49 L 29,44 L 11,44
 L 11,49 L -11,49 L -11,44 L -29,44 L -29,49 L -51,49
 L -51,44 L -69,44 L -69,49 L -95,49 L -95,55.6 L -90,55.6
 L -90,62.2 L -95,62.2 L -95,68.8 L -90,68.8 L -90,75.4 L -95,75.4
 L -95,82 L -69,82 L -69,87 L -51,87 z
M 33.9558,70.9316 L 32.9294,70.7274 L 31.9385,70.391 L 31,69.9282 L 30.1299,69.3468 L 29.3431,68.6569
 L 28.6532,67.8701 L 28.0718,67 L 27.609,66.0615 L 27.2726,65.0706 L 27.0684,64.0442 L 27,63
 L 27.0684,61.9558 L 27.2726,60.9295 L 27.609,59.9385 L 28.0718,59 L 28.6532,58.1299 L 29.3431,57.3432
 L 30.1299,56.6532 L 31,56.0718 L 31.9385,55.609 L 32.9294,55.2726 L 33.9558,55.0685 L 35,55
 L 36.0442,55.0685 L 37.0705,55.2726 L 38.0615,55.609 L 39,56.0718 L 39.8701,56.6532 L 40.6568,57.3432
 L 41.3468,58.1299 L 41.9282,59 L 42.391,59.9385 L 42.7274,60.9295 L 42.9315,61.9558 L 43,63
 L 42.9315,64.0442 L 42.7274,65.0706 L 42.391,66.0615 L 41.9282,67 L 41.3468,67.8701 L 40.6568,68.6569
 L 39.8701,69.3468 L 39,69.9282 L 38.0615,70.391 L 37.0705,70.7274 L 36.0442,70.9316 L 35,71
 z
M 65.9558,70.9316 L 64.9294,70.7274 L 63.9385,70.391 L 63,69.9282 L 62.1299,69.3468 L 61.3431,68.6569
 L 60.6532,67.8701 L 60.0718,67 L 59.609,66.0615 L 59.2726,65.0706 L 59.0684,64.0442 L 59,63
 L 59.0684,61.9558 L 59.2726,60.9295 L 59.609,59.9385 L 60.0718,59 L 60.6532,58.1299 L 61.3431,57.3432
 L 62.1299,56.6532 L 63,56.0718 L 63.9385,55.609 L 64.9294,55.2726 L 65.9558,55.0685 L 67,55
 L 68.0442,55.0685 L 69.0705,55.2726 L 70.0615,55.609 L 71,56.0718 L 71.8701,56.6532 L 72.6568,57.3432
 L 73.3468,58.1299 L 73.9282,59 L 74.391,59.9385 L 74.7274,60.9295 L 74.9315,61.9558 L 75,63
 L 74.9315,64.0442 L 74.7274,65.0706 L 74.391,66.0615 L 73.9282,67 L 73.3468,67.8701 L 72.6568,68.6569
 L 71.8701,69.3468 L 71,69.9282 L 70.0615,70.391 L 69.0705,70.7274 L 68.0442,70.9316 L 67,71
 z
M -51,133 L -29,133 L -29,138 L -11,138 L -11,133 L 11,133
 L 11,138 L 29,138 L 29,133 L 51,133 L 51,138 L 69,138
 L 69,133 L 95,133 L 95,126.4 L 90,126.4 L 90,119.8 L 95,119.8
 L 95,113.2 L 90,113.2 L 90,106.6 L 95,106.6 L 95,100 L 69,100
 L 69,95 L 51,95 L 51,100 L 29,100 L 29,95 L 11,95
 L 11,100 L -11,100 L -11,95 L -29,95 L -29,100 L -51,100
 L -51,95 L -69,95 L -69,100 L -95,100 L -95,106.6 L -90,106.6
 L -90,113.2 L -95,113.2 L -95,119.8 L -90,119.8 L -90,126.4 L -95,126.4
 L -95,133 L -69,133 L -69,138 L -51,138 z
M 67,123 L 67,118 L 83,118 L 83,123 z
" stroke="black" fill="lightgray" stroke-width="0.5"/>
</svg>
