<?xml version="1.0" standalone="no"?>
<!DOCTYPE svg PUBLIC "-//W3C//DTD SVG 1.1//EN" "http://www.w3.org/Graphics/SVG/1.1/DTD/svg11.dtd">
<svg width="270mm" height="264mm" viewBox="-95 -116 270 264" xmlns="http://www.w3.org/2000/svg" version="1.1">
<title>OpenSCAD Model</title>
<path d="
M -69,-49 L -51,-49 L -51,-44 L -29,-44 L -29,-49 L -11,-49
 L -11,-44 L 11,-44 L 11,-49 L 29,-49 L 29,-44 L 51,-44
 L 51,-49 L 69,-49 L 69,-44 L 95,-44 L 95,-59 L 90,-59
 L 90,-73 L 95,-73 L 95,-87 L 90,-87 L 90,-101 L 95,-101
 L 95,-116 L 69,-116 L 69,-111 L 51,-111 L 51,-116 L 29,-116
 L 29,-111 L 11,-111 L 11,-116 L -11,-116 L -11,-111 L -29,-111
 L -29,-116 L -51,-116 L -51,-111 L -69,-111 L -69,-116 L -95,-116
 L -95,-101 L -90,-101 L -90,-87 L -95,-87 L -95,-73 L -90,-73
 L -90,-59 L -95,-59 L -95,-44 L -69,-44 z
M -80.3121,-111.931 L -80.6123,-112.022 L -80.8889,-112.17 L -81.1314,-112.369 L -81.3303,-112.611 L -81.4782,-112.888
 L -81.5692,-113.188 L -81.6,-113.5 L -81.5692,-113.812 L -81.4782,-114.112 L -81.3303,-114.389 L -81.1314,-114.631
 L -80.8889,-114.83 L -80.6123,-114.978 L -80.3121,-115.069 L -80,-115.1 L -79.6879,-115.069 L -79.3877,-114.978
 L -79.1111,-114.83 L -78.8686,-114.631 L -78.6696,-114.389 L -78.5218,-114.112 L -78.4307,-113.812 L -78.4,-113.5
 L -78.4307,-113.188 L -78.5218,-112.888 L -78.6696,-112.611 L -78.8686,-112.369 L -79.1111,-112.17 L -79.3877,-112.022
 L -79.6879,-111.931 L -80,-111.9 z
M -0.312134,-111.931 L -0.612289,-112.022 L -0.888901,-112.17 L -1.13136,-112.369 L -1.33034,-112.611 L -1.4782,-112.888
 L -1.56924,-113.188 L -1.59999,-113.5 L -1.56924,-113.812 L -1.4782,-114.112 L -1.33034,-114.389 L -1.13136,-114.631
 L -0.888901,-114.83 L -0.612289,-114.978 L -0.312134,-115.069 L 0,-115.1 L 0.312134,-115.069 L 0.612289,-114.978
 L 0.888901,-114.83 L 1.13136,-114.631 L 1.33034,-114.389 L 1.4782,-114.112 L 1.56924,-113.812 L 1.59999,-113.5
 L 1.56924,-113.188 L 1.4782,-112.888 L 1.33034,-112.611 L 1.13136,-112.369 L 0.888901,-112.17 L 0.612289,-112.022
 L 0.312134,-111.931 L 0,-111.9 z
M 79.6879,-111.931 L 79.3877,-112.022 L 79.1111,-112.17 L 78.8686,-112.369 L 78.6696,-112.611 L 78.5218,-112.888
 L 78.4307,-113.188 L 78.4,-113.5 L 78.4307,-113.812 L 78.5218,-114.112 L 78.6696,-114.389 L 78.8686,-114.631
 L 79.1111,-114.83 L 79.3877,-114.978 L 79.6879,-115.069 L 80,-115.1 L 80.3121,-115.069 L 80.6123,-114.978
 L 80.8889,-114.83 L 81.1314,-114.631 L 81.3303,-114.389 L 81.4782,-114.112 L 81.5692,-113.812 L 81.6,-113.5
 L 81.5692,-113.188 L 81.4782,-112.888 L 81.3303,-112.611 L 81.1314,-112.369 L 80.8889,-112.17 L 80.6123,-112.022
 L 80.3121,-111.931 L 80,-111.9 z
M -75.5,-60.3 L -75.5,-67.5 L -63.7233,-67.5 L -69.1,-72.8767 L -69.1,-87.1233 L -63.7233,-92.5
 L -75.5,-92.5 L -75.5,-99.7 L -36.5,-99.7 L -36.5,-92.5 L -48.2767,-92.5 L -42.9,-87.1233
 L -42.9,-72.8767 L -48.2767,-67.5 L -36.5,-67.5 L -36.5,-60.3 z
M 38.5,-73 L 38.5,-87 L 63.5,-87 L 63.5,-73 z
M -0.312134,-44.9308 L -0.612289,-45.0218 L -0.888901,-45.1697 L -1.13136,-45.3686 L -1.33034,-45.6111 L -1.4782,-45.8877
 L -1.56924,-46.1879 L -1.59999,-46.5 L -1.56924,-46.8121 L -1.4782,-47.1123 L -1.33034,-47.3889 L -1.13136,-47.6314
 L -0.888901,-47.8304 L -0.612289,-47.9782 L -0.312134,-48.0693 L 0,-48.1 L 0.312134,-48.0693 L 0.612289,-47.9782
 L 0.888901,-47.8304 L 1.13136,-47.6314 L 1.33034,-47.3889 L 1.4782,-47.1123 L 1.56924,-46.8121 L 1.59999,-46.5
 L 1.56924,-46.1879 L 1.4782,-45.8877 L 1.33034,-45.6111 L 1.13136,-45.3686 L 0.888901,-45.1697 L 0.612289,-45.0218
 L 0.312134,-44.9308 L 0,-44.9 z
M 79.6879,-44.9308 L 79.3877,-45.0218 L 79.1111,-45.1697 L 78.8686,-45.3686 L 78.6696,-45.6111 L 78.5218,-45.8877
 L 78.4307,-46.1879 L 78.4,-46.5 L 78.4307,-46.8121 L 78.5218,-47.1123 L 78.6696,-47.3889 L 78.8686,-47.6314
 L 79.1111,-47.8304 L 79.3877,-47.9782 L 79.6879,-48.0693 L 80,-48.1 L 80.3121,-48.0693 L 80.6123,-47.9782
 L 80.8889,-47.8304 L 81.1314,-47.6314 L 81.3303,-47.3889 L 81.4782,-47.1123 L 81.5692,-46.8121 L 81.6,-46.5
 L 81.5692,-46.1879 L 81.4782,-45.8877 L 81.3303,-45.6111 L 81.1314,-45.3686 L 80.8889,-45.1697 L 80.6123,-45.0218
 L 80.3121,-44.9308 L 80,-44.9 z
M -80.3121,-44.9308 L -80.6123,-45.0218 L -80.8889,-45.1697 L -81.1314,-45.3686 L -81.3303,-45.6111 L -81.4782,-45.8877
 L -81.5692,-46.1879 L -81.6,-46.5 L -81.5692,-46.8121 L -81.4782,-47.1123 L -81.3303,-47.3889 L -81.1314,-47.6314
 L -80.8889,-47.8304 L -80.6123,-47.9782 L -80.3121,-48.0693 L -80,-48.1 L -79.6879,-48.0693 L -79.3877,-47.9782
 L -79.1111,-47.8304 L -78.8686,-47.6314 L -78.6696,-47.3889 L -78.5218,-47.1123 L -78.4307,-46.8121 L -78.4,-46.5
 L -78.4307,-46.1879 L -78.5218,-45.8877 L -78.6696,-45.6111 L -78.8686,-45.3686 L -79.1111,-45.1697 L -79.3877,-45.0218
 L -79.6879,-44.9308 L -80,-44.9 z
M 132,-56 L 146,-56 L 146,-51 L 160,-51 L 160,-56 L 170,-56
 L 170,-63.6 L 175,-63.6 L 175,-71.2 L 170,-71.2 L 170,-78.8 L 175,-78.8
 L 175,-86.4 L 170,-86.4 L 170,-94 L 160,-94 L 160,-99 L 146,-99
 L 146,-94 L 132,-94 L 132,-99 L 118,-99 L 118,-94 L 108,-94
 L 108,-86.4 L 103,-86.4 L 103,-78.8 L 108,-78.8 L 108,-71.2 L 103,-71.2
 L 103,-63.6 L 108,-63.6 L 108,-56 L 118,-56 L 118,-51 L 132,-51
 z
M 132,-0 L 146,-0 L 146,5 L 160,5 L 160,-0 L 170,-0
 L 170,-7.59999 L 175,-7.59999 L 175,-15.2 L 170,-15.2 L 170,-22.8 L 175,-22.8
 L 175,-30.4 L 170,-30.4 L 170,-38 L 160,-38 L 160,-43 L 146,-43
 L 146,-38 L 132,-38 L 132,-43 L 118,-43 L 118,-38 L 108,-38
 L 108,-30.4 L 103,-30.4 L 103,-22.8 L 108,-22.8 L 108,-15.2 L 103,-15.2
 L 103,-7.59999 L 108,-7.59999 L 108,-0 L 118,-0 L 118,5 L 132,5
 z
M -69,31 L -51,31 L -51,36 L -29,36 L -29,31 L -11,31
 L -11,36 L 11,36 L 11,31 L 29,31 L 29,36 L 51,36
 L 51,31 L 69,31 L 69,36 L 95,36 L 95,21 L 90,21
 L 90,7 L 95,7 L 95,-7 L 90,-7 L 90,-21 L 95,-21
 L 95,-36 L 69,-36 L 69,-31 L 51,-31 L 51,-36 L 29,-36
 L 29,-31 L 11,-31 L 11,-36 L -11,-36 L -11,-31 L -29,-31
 L -29,-36 L -51,-36 L -51,-31 L -69,-31 L -69,-36 L -95,-36
 L -95,-21 L -90,-21 L -90,-7 L -95,-7 L -95,7 L -90,7
 L -90,21 L -95,21 L -95,36 L -69,36 z
M 83.1683,-17.8327 L 82.8494,-17.9294 L 82.5555,-18.0865 L 82.2979,-18.2979 L 82.0865,-18.5555 L 81.9294,-18.8494
 L 81.8327,-19.1683 L 81.8,-19.5 L 81.8327,-19.8316 L 81.9294,-20.1506 L 82.0865,-20.4445 L 82.2979,-20.7021
 L 82.5555,-20.9135 L 82.8494,-21.0706 L 83.1683,-21.1673 L 83.5,-21.2 L 83.8316,-21.1673 L 84.1506,-21.0706
 L 84.4445,-20.9135 L 84.7021,-20.7021 L 84.9135,-20.4445 L 85.0706,-20.1506 L 85.1673,-19.8316 L 85.2,-19.5
 L 85.1673,-19.1683 L 85.0706,-18.8494 L 84.9135,-18.5555 L 84.7021,-18.2979 L 84.4445,-18.0865 L 84.1506,-17.9294
 L 83.8316,-17.8327 L 83.5,-17.8 z
M -24.8316,-17.8327 L -25.1506,-17.9294 L -25.4445,-18.0865 L -25.7021,-18.2979 L -25.9135,-18.5555 L -26.0706,-18.8494
 L -26.1673,-19.1683 L -26.2,-19.5 L -26.1673,-19.8316 L -26.0706,-20.1506 L -25.9135,-20.4445 L -25.7021,-20.7021
 L -25.4445,-20.9135 L -25.1506,-21.0706 L -24.8316,-21.1673 L -24.5,-21.2 L -24.1683,-21.1673 L -23.8494,-21.0706
 L -23.5555,-20.9135 L -23.2979,-20.7021 L -23.0865,-20.4445 L -22.9294,-20.1506 L -22.8327,-19.8316 L -22.8,-19.5
 L -22.8327,-19.1683 L -22.9294,-18.8494 L -23.0865,-18.5555 L -23.2979,-18.2979 L -23.5555,-18.0865 L -23.8494,-17.9294
 L -24.1683,-17.8327 L -24.5,-17.8 z
M -80.1317,-10.3327 L -80.4506,-10.4294 L -80.7445,-10.5865 L -81.0021,-10.7979 L -81.2135,-11.0555 L -81.3706,-11.3494
 L -81.4673,-11.6683 L -81.5,-12 L -81.4673,-12.3316 L -81.3706,-12.6506 L -81.2135,-12.9445 L -81.0021,-13.2021
 L -80.7445,-13.4135 L -80.4506,-13.5706 L -80.1317,-13.6673 L -79.8,-13.7 L -79.4683,-13.6673 L -79.1494,-13.5706
 L -78.8555,-13.4135 L -78.5979,-13.2021 L -78.3865,-12.9445 L -78.2294,-12.6506 L -78.1327,-12.3316 L -78.1,-12
 L -78.1327,-11.6683 L -78.2294,-11.3494 L -78.3865,-11.0555 L -78.5979,-10.7979 L -78.8555,-10.5865 L -79.1494,-10.4294
 L -79.4683,-10.3327 L -79.8,-10.3 z
M -32.5317,-10.3327 L -32.8506,-10.4294 L -33.1445,-10.5865 L -33.4021,-10.7979 L -33.6135,-11.0555 L -33.7706,-11.3494
 L -33.8673,-11.6683 L -33.9,-12 L -33.8673,-12.3316 L -33.7706,-12.6506 L -33.6135,-12.9445 L -33.4021,-13.2021
 L -33.1445,-13.4135 L -32.8506,-13.5706 L -32.5317,-13.6673 L -32.2,-13.7 L -31.8683,-13.6673 L -31.5494,-13.5706
 L -31.2555,-13.4135 L -30.9979,-13.2021 L -30.7865,-12.9445 L -30.6294,-12.6506 L -30.5327,-12.3316 L -30.5,-12
 L -30.5327,-11.6683 L -30.6294,-11.3494 L -30.7865,-11.0555 L -30.9979,-10.7979 L -31.2555,-10.5865 L -31.5494,-10.4294
 L -31.8683,-10.3327 L -32.2,-10.3 z
M -32.5317,13.6673 L -32.8506,13.5706 L -33.1445,13.4135 L -33.4021,13.2021 L -33.6135,12.9445 L -33.7706,12.6506
 L -33.8673,12.3316 L -33.9,12 L -33.8673,11.6683 L -33.7706,11.3494 L -33.6135,11.0555 L -33.4021,10.7979
 L -33.1445,10.5865 L -32.8506,10.4294 L -32.5317,10.3327 L -32.2,10.3 L -31.8683,10.3327 L -31.5494,10.4294
 L -31.2555,10.5865 L -30.9979,10.7979 L -30.7865,11.0555 L -30.6294,11.3494 L -30.5327,11.6683 L -30.5,12
 L -30.5327,12.3316 L -30.6294,12.6506 L -30.7865,12.9445 L -30.9979,13.2021 L -31.2555,13.4135 L -31.5494,13.5706
 L -31.8683,13.6673 L -32.2,13.7 z
M -80.1317,13.6673 L -80.4506,13.5706 L -80.7445,13.4135 L -81.0021,13.2021 L -81.2135,12.9445 L -81.3706,12.6506
 L -81.4673,12.3316 L -81.5,12 L -81.4673,11.6683 L -81.3706,11.3494 L -81.2135,11.0555 L -81.0021,10.7979
 L -80.7445,10.5865 L -80.4506,10.4294 L -80.1317,10.3327 L -79.8,10.3 L -79.4683,10.3327 L -79.1494,10.4294
 L -78.8555,10.5865 L -78.5979,10.7979 L -78.3865,11.0555 L -78.2294,11.3494 L -78.1327,11.6683 L -78.1,12
 L -78.1327,12.3316 L -78.2294,12.6506 L -78.3865,12.9445 L -78.5979,13.2021 L -78.8555,13.4135 L -79.1494,13.5706
 L -79.4683,13.6673 L -79.8,13.7 z
M 83.1683,21.1673 L 82.8494,21.0706 L 82.5555,20.9135 L 82.2979,20.7021 L 82.0865,20.4445 L 81.9294,20.1506
 L 81.8327,19.8316 L 81.8,19.5 L 81.8327,19.1683 L 81.9294,18.8494 L 82.0865,18.5555 L 82.2979,18.2979
 L 82.5555,18.0865 L 82.8494,17.9294 L 83.1683,17.8327 L 83.5,17.8 L 83.8316,17.8327 L 84.1506,17.9294
 L 84.4445,18.0865 L 84.7021,18.2979 L 84.9135,18.5555 L 85.0706,18.8494 L 85.1673,19.1683 L 85.2,19.5
 L 85.1673,19.8316 L 85.0706,20.1506 L 84.9135,20.4445 L 84.7021,20.7021 L 84.4445,20.9135 L 84.1506,21.0706
 L 83.8316,21.1673 L 83.5,21.2 z
M -24.8316,21.1673 L -25.1506,21.0706 L -25.4445,20.9135 L -25.7021,20.7021 L -25.9135,20.4445 L -26.0706,20.1506
 L -26.1673,19.8316 L -26.2,19.5 L -26.1673,19.1683 L -26.0706,18.8494 L -25.9135,18.5555 L -25.7021,18.2979
 L -25.4445,18.0865 L -25.1506,17.9294 L -24.8316,17.8327 L -24.5,17.8 L -24.1683,17.8327 L -23.8494,17.9294
 L -23.5555,18.0865 L -23.2979,18.2979 L -23.0865,18.5555 L -22.9294,18.8494 L -22.8327,19.1683 L -22.8,19.5
 L -22.8327,19.8316 L -22.9294,20.1506 L -23.0865,20.4445 L -23.2979,20.7021 L -23.5555,20.9135 L -23.8494,21.0706
 L -24.1683,21.1673 L -24.5,21.2 z
M -51,87 L -29,87 L -29,92 L -11,92 L -11,87 L 11,87
 L 11,92 L 29,92 L 29,87 L 51,87 L 51,92 L 69,92
 L 69,87 L 95,87 L 95,79.4 L 90,79.4 L 90,71.8 L 95,71.8
 L 95,64.2 L 90,64.2 L 90,56.6 L 95,56.6 L 95,49 L 69,49
 L 69,44 L 51,44 L 51,49 L 29,49 L 29,44 L 11,44
 L 11,49 L -11,49 L -11,44 L -29,44 L -29,49 L -51,49
 L -51,44 L -69,44 L -69,49 L -95,49 L -95,56.6 L -90,56.6
 L -90,64.2 L -95,64.2 L -95,71.8 L -90,71.8 L -90,79.4 L -95,79.4
 L -95,87 L -69,87 L -69,92 L -51,92 z
M 66.2168,73.9487 L 65.4471,73.7956 L 64.7039,73.5433 L 64,73.1962 L 63.3474,72.7601 L 62.7574,72.2426
 L 62.2399,71.6526 L 61.8038,71 L 61.4567,70.2961 L 61.2044,69.5529 L 61.0513,68.7832 L 61,68
 L 61.0513,67.2169 L 61.2044,66.4471 L 61.4567,65.7039 L 61.8038,65 L 62.2399,64.3474 L 62.7574,63.7574
 L 63.3474,63.2399 L 64,62.8038 L 64.7039,62.4567 L 65.4471,62.2045 L 66.2168,62.0513 L 67,62
 L 67.7831,62.0513 L 68.5529,62.2045 L 69.2961,62.4567 L 70,62.8038 L 70.6526,63.2399 L 71.2426,63.7574
 L 71.7601,64.3474 L 72.1962,65 L 72.5433,65.7039 L 72.7955,66.4471 L 72.9487,67.2169 L 73,68
 L 72.9487,68.7832 L 72.7955,69.5529 L 72.5433,70.2961 L 72.1962,71 L 71.7601,71.6526 L 71.2426,72.2426
 L 70.6526,72.7601 L 70,73.1962 L 69.2961,73.5433 L 68.5529,73.7956 L 67.7831,73.9487 L 67,74
 z
M 34.2168,73.9487 L 33.4471,73.7956 L 32.7039,73.5433 L 32,73.1962 L 31.3474,72.7601 L 30.7574,72.2426
 L 30.2399,71.6526 L 29.8038,71 L 29.4567,70.2961 L 29.2044,69.5529 L 29.0513,68.7832 L 29,68
 L 29.0513,67.2169 L 29.2044,66.4471 L 29.4567,65.7039 L 29.8038,65 L 30.2399,64.3474 L 30.7574,63.7574
 L 31.3474,63.2399 L 32,62.8038 L 32.7039,62.4567 L 33.4471,62.2045 L 34.2168,62.0513 L 35,62
 L 35.7831,62.0513 L 36.5529,62.2045 L 37.2961,62.4567 L 38,62.8038 L 38.6526,63.2399 L 39.2426,63.7574
 L 39.7601,64.3474 L 40.1962,65 L 40.5433,65.7039 L 40.7955,66.4471 L 40.9487,67.2169 L 41,68
 L 40.9487,68.7832 L 40.7955,69.5529 L 40.5433,70.2961 L 40.1962,71 L 39.7601,71.6526 L 39.2426,72.2426
 L 38.6526,72.7601 L 38,73.1962 L 37.2961,73.5433 L 36.5529,73.7956 L 35.7831,73.9487 L 35,74
 z
M -51,143 L -29,143 L -29,148 L -11,148 L -11,143 L 11,143
 L 11,148 L 29,148 L 29,143 L 51,143 L 51,148 L 69,148
 L 69,143 L 95,143 L 95,135.4 L 90,135.4 L 90,127.8 L 95,127.8
 L 95,120.2 L 90,120.2 L 90,112.6 L 95,112.6 L 95,105 L 69,105
 L 69,100 L 51,100 L 51,105 L 29,105 L 29,100 L 11,100
 L 11,105 L -11,105 L -11,100 L -29,100 L -29,105 L -51,105
 L -51,100 L -69,100 L -69,105 L -95,105 L -95,112.6 L -90,112.6
 L -90,120.2 L -95,120.2 L -95,127.8 L -90,127.8 L -90,135.4 L -95,135.4
 L -95,143 L -69,143 L -69,148 L -51,148 z
M -61,130.5 L -61,125.5 L -45,125.5 L -45,130.5 z
" stroke="black" fill="lightgray" stroke-width="0.5"/>
</svg>
