<?xml version="1.0" standalone="no"?>
<!DOCTYPE svg PUBLIC "-//W3C//DTD SVG 1.1//EN" "http://www.w3.org/Graphics/SVG/1.1/DTD/svg11.dtd">
<svg width="270mm" height="264mm" viewBox="-95 -116 270 264" xmlns="http://www.w3.org/2000/svg" version="1.1">
<title>OpenSCAD Model</title>
<path d="
M -69,-49 L -51,-49 L -51,-44 L -29,-44 L -29,-49 L -11,-49
 L -11,-44 L 11,-44 L 11,-49 L 29,-49 L 29,-44 L 51,-44
 L 51,-49 L 69,-49 L 69,-44 L 95,-44 L 95,-59 L 90,-59
 L 90,-73 L 95,-73 L 95,-87 L 90,-87 L 90,-101 L 95,-101
 L 95,-116 L 69,-116 L 69,-111 L 51,-111 L 51,-116 L 29,-116
 L 29,-111 L 11,-111 L 11,-116 L -11,-116 L -11,-111 L -29,-111
 L -29,-116 L -51,-116 L -51,-111 L -69,-111 L -69,-116 L -95,-116
 L -95,-101 L -90,-101 L -90,-87 L -95,-87 L -95,-73 L -90,-73
 L -90,-59 L -95,-59 L -95,-44 L -69,-44 z
M -0.312134,-111.931 L -0.612289,-112.022 L -0.888901,-112.17 L -1.13136,-112.369 L -1.33034,-112.611 L -1.4782,-112.888
 L -1.56924,-113.188 L -1.59999,-113.5 L -1.56924,-113.812 L -1.4782,-114.112 L -1.33034,-114.389 L -1.13136,-114.631
 L -0.888901,-114.83 L -0.612289,-114.978 L -0.312134,-115.069 L 0,-115.1 L 0.312134,-115.069 L 0.612289,-114.978
 L 0.888901,-114.83 L 1.13136,-114.631 L 1.33034,-114.389 L 1.4782,-114.112 L 1.56924,-113.812 L 1.59999,-113.5
 L 1.56924,-113.188 L 1.4782,-112.888 L 1.33034,-112.611 L 1.13136,-112.369 L 0.888901,-112.17 L 0.612289,-112.022
 L 0.312134,-111.931 L 0,-111.9 z
M -80.3121,-111.931 L -80.6123,-112.022 L -80.8889,-112.17 L -81.1314,-112.369 L -81.3303,-112.611 L -81.4782,-112.888
 L -81.5692,-113.188 L -81.6,-113.5 L -81.5692,-113.812 L -81.4782,-114.112 L -81.3303,-114.389 L -81.1314,-114.631
 L -80.8889,-114.83 L -80.6123,-114.978 L -80.3121,-115.069 L -80,-115.1 L -79.6879,-115.069 L -79.3877,-114.978
 L -79.1111,-114.83 L -78.8686,-114.631 L -78.6696,-114.389 L -78.5218,-114.112 L -78.4307,-113.812 L -78.4,-113.5
 L -78.4307,-113.188 L -78.5218,-112.888 L -78.6696,-112.611 L -78.8686,-112.369 L -79.1111,-112.17 L -79.3877,-112.022
 L -79.6879,-111.931 L -80,-111.9 z
M 79.6879,-111.931 L 79.3877,-112.022 L 79.1111,-112.17 L 78.8686,-112.369 L 78.6696,-112.611 L 78.5218,-112.888
 L 78.4307,-113.188 L 78.4,-113.5 L 78.4307,-113.812 L 78.5218,-114.112 L 78.6696,-114.389 L 78.8686,-114.631
 L 79.1111,-114.83 L 79.3877,-114.978 L 79.6879,-115.069 L 80,-115.1 L 80.3121,-115.069 L 80.6123,-114.978
 L 80.8889,-114.83 L 81.1314,-114.631 L 81.3303,-114.389 L 81.4782,-114.112 L 81.5692,-113.812 L 81.6,-113.5
 L 81.5692,-113.188 L 81.4782,-112.888 L 81.3303,-112.611 L 81.1314,-112.369 L 80.8889,-112.17 L 80.6123,-112.022
 L 80.3121,-111.931 L 80,-111.9 z
M -75.7,-59 L -75.7,-101 L -68.5,-101 L -68.5,-87.7233 L -63.1233,-93.1 L -48.8767,-93.1
 L -43.5,-87.7233 L -43.5,-101 L -36.3,-101 L -36.3,-59 L -43.5,-59 L -43.5,-72.2767
 L -48.8767,-66.9 L -63.1233,-66.9 L -68.5,-72.2767 L -68.5,-59 z
M 38.5,-73 L 38.5,-87 L 63.5,-87 L 63.5,-73 z
M -0.312134,-44.9308 L -0.612289,-45.0218 L -0.888901,-45.1697 L -1.13136,-45.3686 L -1.33034,-45.6111 L -1.4782,-45.8877
 L -1.56924,-46.1879 L -1.59999,-46.5 L -1.56924,-46.8121 L -1.4782,-47.1123 L -1.33034,-47.3889 L -1.13136,-47.6314
 L -0.888901,-47.8304 L -0.612289,-47.9782 L -0.312134,-48.0693 L 0,-48.1 L 0.312134,-48.0693 L 0.612289,-47.9782
 L 0.888901,-47.8304 L 1.13136,-47.6314 L 1.33034,-47.3889 L 1.4782,-47.1123 L 1.56924,-46.8121 L 1.59999,-46.5
 L 1.56924,-46.1879 L 1.4782,-45.8877 L 1.33034,-45.6111 L 1.13136,-45.3686 L 0.888901,-45.1697 L 0.612289,-45.0218
 L 0.312134,-44.9308 L 0,-44.9 z
M -80.3121,-44.9308 L -80.6123,-45.0218 L -80.8889,-45.1697 L -81.1314,-45.3686 L -81.3303,-45.6111 L -81.4782,-45.8877
 L -81.5692,-46.1879 L -81.6,-46.5 L -81.5692,-46.8121 L -81.4782,-47.1123 L -81.3303,-47.3889 L -81.1314,-47.6314
 L -80.8889,-47.8304 L -80.6123,-47.9782 L -80.3121,-48.0693 L -80,-48.1 L -79.6879,-48.0693 L -79.3877,-47.9782
 L -79.1111,-47.8304 L -78.8686,-47.6314 L -78.6696,-47.3889 L -78.5218,-47.1123 L -78.4307,-46.8121 L -78.4,-46.5
 L -78.4307,-46.1879 L -78.5218,-45.8877 L -78.6696,-45.6111 L -78.8686,-45.3686 L -79.1111,-45.1697 L -79.3877,-45.0218
 L -79.6879,-44.9308 L -80,-44.9 z
M 79.6879,-44.9308 L 79.3877,-45.0218 L 79.1111,-45.1697 L 78.8686,-45.3686 L 78.6696,-45.6111 L 78.5218,-45.8877
 L 78.4307,-46.1879 L 78.4,-46.5 L 78.4307,-46.8121 L 78.5218,-47.1123 L 78.6696,-47.3889 L 78.8686,-47.6314
 L 79.1111,-47.8304 L 79.3877,-47.9782 L 79.6879,-48.0693 L 80,-48.1 L 80.3121,-48.0693 L 80.6123,-47.9782
 L 80.8889,-47.8304 L 81.1314,-47.6314 L 81.3303,-47.3889 L 81.4782,-47.1123 L 81.5692,-46.8121 L 81.6,-46.5
 L 81.5692,-46.1879 L 81.4782,-45.8877 L 81.3303,-45.6111 L 81.1314,-45.3686 L 80.8889,-45.1697 L 80.6123,-45.0218
 L 80.3121,-44.9308 L 80,-44.9 z
M 132,-56 L 146,-56 L 146,-51 L 160,-51 L 160,-56 L 170,-56
 L 170,-63.6 L 175,-63.6 L 175,-71.2 L 170,-71.2 L 170,-78.8 L 175,-78.8
 L 175,-86.4 L 170,-86.4 L 170,-94 L 160,-94 L 160,-99 L 146,-99
 L 146,-94 L 132,-94 L 132,-99 L 118,-99 L 118,-94 L 108,-94
 L 108,-86.4 L 103,-86.4 L 103,-78.8 L 108,-78.8 L 108,-71.2 L 103,-71.2
 L 103,-63.6 L 108,-63.6 L 108,-56 L 118,-56 L 118,-51 L 132,-51
 z
M 132,-0 L 146,-0 L 146,5 L 160,5 L 160,-0 L 170,-0
 L 170,-7.59999 L 175,-7.59999 L 175,-15.2 L 170,-15.2 L 170,-22.8 L 175,-22.8
 L 175,-30.4 L 170,-30.4 L 170,-38 L 160,-38 L 160,-43 L 146,-43
 L 146,-38 L 132,-38 L 132,-43 L 118,-43 L 118,-38 L 108,-38
 L 108,-30.4 L 103,-30.4 L 103,-22.8 L 108,-22.8 L 108,-15.2 L 103,-15.2
 L 103,-7.59999 L 108,-7.59999 L 108,-0 L 118,-0 L 118,5 L 132,5
 z
M -69,31 L -51,31 L -51,36 L -29,36 L -29,31 L -11,31
 L -11,36 L 11,36 L 11,31 L 29,31 L 29,36 L 51,36
 L 51,31 L 69,31 L 69,36 L 95,36 L 95,21 L 90,21
 L 90,7 L 95,7 L 95,-7 L 90,-7 L 90,-21 L 95,-21
 L 95,-36 L 69,-36 L 69,-31 L 51,-31 L 51,-36 L 29,-36
 L 29,-31 L 11,-31 L 11,-36 L -11,-36 L -11,-31 L -29,-31
 L -29,-36 L -51,-36 L -51,-31 L -69,-31 L -69,-36 L -95,-36
 L -95,-21 L -90,-21 L -90,-7 L -95,-7 L -95,7 L -90,7
 L -90,21 L -95,21 L -95,36 L -69,36 z
M -68.3316,-22.1327 L -68.6506,-22.2294 L -68.9445,-22.3865 L -69.2021,-22.5979 L -69.4135,-22.8555 L -69.5706,-23.1494
 L -69.6673,-23.4683 L -69.7,-23.8 L -69.6673,-24.1317 L -69.5706,-24.4506 L -69.4135,-24.7445 L -69.2021,-25.0021
 L -68.9445,-25.2135 L -68.6506,-25.3706 L -68.3316,-25.4673 L -68,-25.5 L -67.6683,-25.4673 L -67.3494,-25.3706
 L -67.0555,-25.2135 L -66.7979,-25.0021 L -66.5865,-24.7445 L -66.4294,-24.4506 L -66.3327,-24.1317 L -66.3,-23.8
 L -66.3327,-23.4683 L -66.4294,-23.1494 L -66.5865,-22.8555 L -66.7979,-22.5979 L -67.0555,-22.3865 L -67.3494,-22.2294
 L -67.6683,-22.1327 L -68,-22.1 z
M -44.3316,-22.1327 L -44.6506,-22.2294 L -44.9445,-22.3865 L -45.2021,-22.5979 L -45.4135,-22.8555 L -45.5706,-23.1494
 L -45.6673,-23.4683 L -45.7,-23.8 L -45.6673,-24.1317 L -45.5706,-24.4506 L -45.4135,-24.7445 L -45.2021,-25.0021
 L -44.9445,-25.2135 L -44.6506,-25.3706 L -44.3316,-25.4673 L -44,-25.5 L -43.6683,-25.4673 L -43.3494,-25.3706
 L -43.0555,-25.2135 L -42.7979,-25.0021 L -42.5865,-24.7445 L -42.4294,-24.4506 L -42.3327,-24.1317 L -42.3,-23.8
 L -42.3327,-23.4683 L -42.4294,-23.1494 L -42.5865,-22.8555 L -42.7979,-22.5979 L -43.0555,-22.3865 L -43.3494,-22.2294
 L -43.6683,-22.1327 L -44,-22.1 z
M 83.1683,-17.8327 L 82.8494,-17.9294 L 82.5555,-18.0865 L 82.2979,-18.2979 L 82.0865,-18.5555 L 81.9294,-18.8494
 L 81.8327,-19.1683 L 81.8,-19.5 L 81.8327,-19.8316 L 81.9294,-20.1506 L 82.0865,-20.4445 L 82.2979,-20.7021
 L 82.5555,-20.9135 L 82.8494,-21.0706 L 83.1683,-21.1673 L 83.5,-21.2 L 83.8316,-21.1673 L 84.1506,-21.0706
 L 84.4445,-20.9135 L 84.7021,-20.7021 L 84.9135,-20.4445 L 85.0706,-20.1506 L 85.1673,-19.8316 L 85.2,-19.5
 L 85.1673,-19.1683 L 85.0706,-18.8494 L 84.9135,-18.5555 L 84.7021,-18.2979 L 84.4445,-18.0865 L 84.1506,-17.9294
 L 83.8316,-17.8327 L 83.5,-17.8 z
M -24.8316,-17.8327 L -25.1506,-17.9294 L -25.4445,-18.0865 L -25.7021,-18.2979 L -25.9135,-18.5555 L -26.0706,-18.8494
 L -26.1673,-19.1683 L -26.2,-19.5 L -26.1673,-19.8316 L -26.0706,-20.1506 L -25.9135,-20.4445 L -25.7021,-20.7021
 L -25.4445,-20.9135 L -25.1506,-21.0706 L -24.8316,-21.1673 L -24.5,-21.2 L -24.1683,-21.1673 L -23.8494,-21.0706
 L -23.5555,-20.9135 L -23.2979,-20.7021 L -23.0865,-20.4445 L -22.9294,-20.1506 L -22.8327,-19.8316 L -22.8,-19.5
 L -22.8327,-19.1683 L -22.9294,-18.8494 L -23.0865,-18.5555 L -23.2979,-18.2979 L -23.5555,-18.0865 L -23.8494,-17.9294
 L -24.1683,-17.8327 L -24.5,-17.8 z
M -24.8316,21.1673 L -25.1506,21.0706 L -25.4445,20.9135 L -25.7021,20.7021 L -25.9135,20.4445 L -26.0706,20.1506
 L -26.1673,19.8316 L -26.2,19.5 L -26.1673,19.1683 L -26.0706,18.8494 L -25.9135,18.5555 L -25.7021,18.2979
 L -25.4445,18.0865 L -25.1506,17.9294 L -24.8316,17.8327 L -24.5,17.8 L -24.1683,17.8327 L -23.8494,17.9294
 L -23.5555,18.0865 L -23.2979,18.2979 L -23.0865,18.5555 L -22.9294,18.8494 L -22.8327,19.1683 L -22.8,19.5
 L -22.8327,19.8316 L -22.9294,20.1506 L -23.0865,20.4445 L -23.2979,20.7021 L -23.5555,20.9135 L -23.8494,21.0706
 L -24.1683,21.1673 L -24.5,21.2 z
M 83.1683,21.1673 L 82.8494,21.0706 L 82.5555,20.9135 L 82.2979,20.7021 L 82.0865,20.4445 L 81.9294,20.1506
 L 81.8327,19.8316 L 81.8,19.5 L 81.8327,19.1683 L 81.9294,18.8494 L 82.0865,18.5555 L 82.2979,18.2979
 L 82.5555,18.0865 L 82.8494,17.9294 L 83.1683,17.8327 L 83.5,17.8 L 83.8316,17.8327 L 84.1506,17.9294
 L 84.4445,18.0865 L 84.7021,18.2979 L 84.9135,18.5555 L 85.0706,18.8494 L 85.1673,19.1683 L 85.2,19.5
 L 85.1673,19.8316 L 85.0706,20.1506 L 84.9135,20.4445 L 84.7021,20.7021 L 84.4445,20.9135 L 84.1506,21.0706
 L 83.8316,21.1673 L 83.5,21.2 z
M -68.3316,25.4673 L -68.6506,25.3706 L -68.9445,25.2135 L -69.2021,25.0021 L -69.4135,24.7445 L -69.5706,24.4506
 L -69.6673,24.1317 L -69.7,23.8 L -69.6673,23.4683 L -69.5706,23.1494 L -69.4135,22.8555 L -69.2021,22.5979
 L -68.9445,22.3865 L -68.6506,22.2294 L -68.3316,22.1327 L -68,22.1 L -67.6683,22.1327 L -67.3494,22.2294
 L -67.0555,22.3865 L -66.7979,22.5979 L -66.5865,22.8555 L -66.4294,23.1494 L -66.3327,23.4683 L -66.3,23.8
 L -66.3327,24.1317 L -66.4294,24.4506 L -66.5865,24.7445 L -66.7979,25.0021 L -67.0555,25.2135 L -67.3494,25.3706
 L -67.6683,25.4673 L -68,25.5 z
M -44.3316,25.4673 L -44.6506,25.3706 L -44.9445,25.2135 L -45.2021,25.0021 L -45.4135,24.7445 L -45.5706,24.4506
 L -45.6673,24.1317 L -45.7,23.8 L -45.6673,23.4683 L -45.5706,23.1494 L -45.4135,22.8555 L -45.2021,22.5979
 L -44.9445,22.3865 L -44.6506,22.2294 L -44.3316,22.1327 L -44,22.1 L -43.6683,22.1327 L -43.3494,22.2294
 L -43.0555,22.3865 L -42.7979,22.5979 L -42.5865,22.8555 L -42.4294,23.1494 L -42.3327,23.4683 L -42.3,23.8
 L -42.3327,24.1317 L -42.4294,24.4506 L -42.5865,24.7445 L -42.7979,25.0021 L -43.0555,25.2135 L -43.3494,25.3706
 L -43.6683,25.4673 L -44,25.5 z
M -51,87 L -29,87 L -29,92 L -11,92 L -11,87 L 11,87
 L 11,92 L 29,92 L 29,87 L 51,87 L 51,92 L 69,92
 L 69,87 L 95,87 L 95,79.4 L 90,79.4 L 90,71.8 L 95,71.8
 L 95,64.2 L 90,64.2 L 90,56.6 L 95,56.6 L 95,49 L 69,49
 L 69,44 L 51,44 L 51,49 L 29,49 L 29,44 L 11,44
 L 11,49 L -11,49 L -11,44 L -29,44 L -29,49 L -51,49
 L -51,44 L -69,44 L -69,49 L -95,49 L -95,56.6 L -90,56.6
 L -90,64.2 L -95,64.2 L -95,71.8 L -90,71.8 L -90,79.4 L -95,79.4
 L -95,87 L -69,87 L -69,92 L -51,92 z
M 33.9558,75.9316 L 32.9294,75.7274 L 31.9385,75.391 L 31,74.9282 L 30.1299,74.3468 L 29.3431,73.6569
 L 28.6532,72.8701 L 28.0718,72 L 27.609,71.0615 L 27.2726,70.0706 L 27.0684,69.0442 L 27,68
 L 27.0684,66.9558 L 27.2726,65.9295 L 27.609,64.9385 L 28.0718,64 L 28.6532,63.1299 L 29.3431,62.3432
 L 30.1299,61.6532 L 31,61.0718 L 31.9385,60.609 L 32.9294,60.2726 L 33.9558,60.0685 L 35,60
 L 36.0442,60.0685 L 37.0705,60.2726 L 38.0615,60.609 L 39,61.0718 L 39.8701,61.6532 L 40.6568,62.3432
 L 41.3468,63.1299 L 41.9282,64 L 42.391,64.9385 L 42.7274,65.9295 L 42.9315,66.9558 L 43,68
 L 42.9315,69.0442 L 42.7274,70.0706 L 42.391,71.0615 L 41.9282,72 L 41.3468,72.8701 L 40.6568,73.6569
 L 39.8701,74.3468 L 39,74.9282 L 38.0615,75.391 L 37.0705,75.7274 L 36.0442,75.9316 L 35,76
 z
M 65.9558,75.9316 L 64.9294,75.7274 L 63.9385,75.391 L 63,74.9282 L 62.1299,74.3468 L 61.3431,73.6569
 L 60.6532,72.8701 L 60.0718,72 L 59.609,71.0615 L 59.2726,70.0706 L 59.0684,69.0442 L 59,68
 L 59.0684,66.9558 L 59.2726,65.9295 L 59.609,64.9385 L 60.0718,64 L 60.6532,63.1299 L 61.3431,62.3432
 L 62.1299,61.6532 L 63,61.0718 L 63.9385,60.609 L 64.9294,60.2726 L 65.9558,60.0685 L 67,60
 L 68.0442,60.0685 L 69.0705,60.2726 L 70.0615,60.609 L 71,61.0718 L 71.8701,61.6532 L 72.6568,62.3432
 L 73.3468,63.1299 L 73.9282,64 L 74.391,64.9385 L 74.7274,65.9295 L 74.9315,66.9558 L 75,68
 L 74.9315,69.0442 L 74.7274,70.0706 L 74.391,71.0615 L 73.9282,72 L 73.3468,72.8701 L 72.6568,73.6569
 L 71.8701,74.3468 L 71,74.9282 L 70.0615,75.391 L 69.0705,75.7274 L 68.0442,75.9316 L 67,76
 z
M -51,143 L -29,143 L -29,148 L -11,148 L -11,143 L 11,143
 L 11,148 L 29,148 L 29,143 L 51,143 L 51,148 L 69,148
 L 69,143 L 95,143 L 95,135.4 L 90,135.4 L 90,127.8 L 95,127.8
 L 95,120.2 L 90,120.2 L 90,112.6 L 95,112.6 L 95,105 L 69,105
 L 69,100 L 51,100 L 51,105 L 29,105 L 29,100 L 11,100
 L 11,105 L -11,105 L -11,100 L -29,100 L -29,105 L -51,105
 L -51,100 L -69,100 L -69,105 L -95,105 L -95,112.6 L -90,112.6
 L -90,120.2 L -95,120.2 L -95,127.8 L -90,127.8 L -90,135.4 L -95,135.4
 L -95,143 L -69,143 L -69,148 L -51,148 z
M 67,133 L 67,128 L 83,128 L 83,133 z
" stroke="black" fill="lightgray" stroke-width="0.5"/>
</svg>
