<?xml version="1.0" standalone="no"?>
<!DOCTYPE svg PUBLIC "-//W3C//DTD SVG 1.1//EN" "http://www.w3.org/Graphics/SVG/1.1/DTD/svg11.dtd">
<svg width="274mm" height="260mm" viewBox="-96 -119 274 260" xmlns="http://www.w3.org/2000/svg" version="1.1">
<title>OpenSCAD Model</title>
<path d="
M -69,-51 L -51,-51 L -51,-45 L -29,-45 L -29,-51 L -11,-51
 L -11,-45 L 11,-45 L 11,-51 L 29,-51 L 29,-45 L 51,-45
 L 51,-51 L 69,-51 L 69,-45 L 96,-45 L 96,-61 L 90,-61
 L 90,-75 L 96,-75 L 96,-89 L 90,-89 L 90,-103 L 96,-103
 L 96,-119 L 69,-119 L 69,-113 L 51,-113 L 51,-119 L 29,-119
 L 29,-113 L 11,-113 L 11,-119 L -11,-119 L -11,-113 L -29,-113
 L -29,-119 L -51,-119 L -51,-113 L -69,-113 L -69,-119 L -96,-119
 L -96,-103 L -90,-103 L -90,-89 L -96,-89 L -96,-75 L -90,-75
 L -90,-61 L -96,-61 L -96,-45 L -69,-45 z
M -75.7,-61 L -75.7,-64.5 L -79.205,-64.5 L -79.205,-73.5 L -75.7,-73.5 L -75.7,-90.5
 L -79.205,-90.5 L -79.205,-99.5 L -75.7,-99.5 L -75.7,-103 L -68.5,-103 L -68.5,-89.7233
 L -63.1233,-95.1 L -48.8767,-95.1 L -43.5,-89.7233 L -43.5,-103 L -36.3,-103 L -36.3,-99.5
 L -32.795,-99.5 L -32.795,-90.5 L -36.3,-90.5 L -36.3,-73.5 L -32.795,-73.5 L -32.795,-64.5
 L -36.3,-64.5 L -36.3,-61 L -43.5,-61 L -43.5,-74.2767 L -48.8767,-68.9 L -63.1233,-68.9
 L -68.5,-74.2767 L -68.5,-61 z
M 38,-74.5 L 38,-89.5 L 64,-89.5 L 64,-74.5 z
M 134,-52 L 148,-52 L 148,-46 L 162,-46 L 162,-52 L 172,-52
 L 172,-58.4 L 178,-58.4 L 178,-64.8 L 172,-64.8 L 172,-71.2 L 178,-71.2
 L 178,-77.6 L 172,-77.6 L 172,-84 L 162,-84 L 162,-90 L 148,-90
 L 148,-84 L 134,-84 L 134,-90 L 120,-90 L 120,-84 L 110,-84
 L 110,-77.6 L 104,-77.6 L 104,-71.2 L 110,-71.2 L 110,-64.8 L 104,-64.8
 L 104,-58.4 L 110,-58.4 L 110,-52 L 120,-52 L 120,-46 L 134,-46
 z
M 134,-0 L 148,-0 L 148,6 L 162,6 L 162,-0 L 172,-0
 L 172,-6.39999 L 178,-6.39999 L 178,-12.8 L 172,-12.8 L 172,-19.2 L 178,-19.2
 L 178,-25.6 L 172,-25.6 L 172,-32 L 162,-32 L 162,-38 L 148,-38
 L 148,-32 L 134,-32 L 134,-38 L 120,-38 L 120,-32 L 110,-32
 L 110,-25.6 L 104,-25.6 L 104,-19.2 L 110,-19.2 L 110,-12.8 L 104,-12.8
 L 104,-6.39999 L 110,-6.39999 L 110,-0 L 120,-0 L 120,6 L 134,6
 z
M -69,31 L -51,31 L -51,37 L -29,37 L -29,31 L -11,31
 L -11,37 L 11,37 L 11,31 L 29,31 L 29,37 L 51,37
 L 51,31 L 69,31 L 69,37 L 96,37 L 96,21 L 90,21
 L 90,7 L 96,7 L 96,-7 L 90,-7 L 90,-21 L 96,-21
 L 96,-37 L 69,-37 L 69,-31 L 51,-31 L 51,-37 L 29,-37
 L 29,-31 L 11,-31 L 11,-37 L -11,-37 L -11,-31 L -29,-31
 L -29,-37 L -51,-37 L -51,-31 L -69,-31 L -69,-37 L -96,-37
 L -96,-21 L -90,-21 L -90,-7 L -96,-7 L -96,7 L -90,7
 L -90,21 L -96,21 L -96,37 L -69,37 z
M -68.3316,-22.1327 L -68.6506,-22.2294 L -68.9445,-22.3865 L -69.2021,-22.5979 L -69.4135,-22.8555 L -69.5706,-23.1494
 L -69.6673,-23.4683 L -69.7,-23.8 L -69.6673,-24.1317 L -69.5706,-24.4506 L -69.4135,-24.7445 L -69.2021,-25.0021
 L -68.9445,-25.2135 L -68.6506,-25.3706 L -68.3316,-25.4673 L -68,-25.5 L -67.6683,-25.4673 L -67.3494,-25.3706
 L -67.0555,-25.2135 L -66.7979,-25.0021 L -66.5865,-24.7445 L -66.4294,-24.4506 L -66.3327,-24.1317 L -66.3,-23.8
 L -66.3327,-23.4683 L -66.4294,-23.1494 L -66.5865,-22.8555 L -66.7979,-22.5979 L -67.0555,-22.3865 L -67.3494,-22.2294
 L -67.6683,-22.1327 L -68,-22.1 z
M -44.3316,-22.1327 L -44.6506,-22.2294 L -44.9445,-22.3865 L -45.2021,-22.5979 L -45.4135,-22.8555 L -45.5706,-23.1494
 L -45.6673,-23.4683 L -45.7,-23.8 L -45.6673,-24.1317 L -45.5706,-24.4506 L -45.4135,-24.7445 L -45.2021,-25.0021
 L -44.9445,-25.2135 L -44.6506,-25.3706 L -44.3316,-25.4673 L -44,-25.5 L -43.6683,-25.4673 L -43.3494,-25.3706
 L -43.0555,-25.2135 L -42.7979,-25.0021 L -42.5865,-24.7445 L -42.4294,-24.4506 L -42.3327,-24.1317 L -42.3,-23.8
 L -42.3327,-23.4683 L -42.4294,-23.1494 L -42.5865,-22.8555 L -42.7979,-22.5979 L -43.0555,-22.3865 L -43.3494,-22.2294
 L -43.6683,-22.1327 L -44,-22.1 z
M 83.1683,-17.8327 L 82.8494,-17.9294 L 82.5555,-18.0865 L 82.2979,-18.2979 L 82.0865,-18.5555 L 81.9294,-18.8494
 L 81.8327,-19.1683 L 81.8,-19.5 L 81.8327,-19.8316 L 81.9294,-20.1506 L 82.0865,-20.4445 L 82.2979,-20.7021
 L 82.5555,-20.9135 L 82.8494,-21.0706 L 83.1683,-21.1673 L 83.5,-21.2 L 83.8316,-21.1673 L 84.1506,-21.0706
 L 84.4445,-20.9135 L 84.7021,-20.7021 L 84.9135,-20.4445 L 85.0706,-20.1506 L 85.1673,-19.8316 L 85.2,-19.5
 L 85.1673,-19.1683 L 85.0706,-18.8494 L 84.9135,-18.5555 L 84.7021,-18.2979 L 84.4445,-18.0865 L 84.1506,-17.9294
 L 83.8316,-17.8327 L 83.5,-17.8 z
M -24.8316,-17.8327 L -25.1506,-17.9294 L -25.4445,-18.0865 L -25.7021,-18.2979 L -25.9135,-18.5555 L -26.0706,-18.8494
 L -26.1673,-19.1683 L -26.2,-19.5 L -26.1673,-19.8316 L -26.0706,-20.1506 L -25.9135,-20.4445 L -25.7021,-20.7021
 L -25.4445,-20.9135 L -25.1506,-21.0706 L -24.8316,-21.1673 L -24.5,-21.2 L -24.1683,-21.1673 L -23.8494,-21.0706
 L -23.5555,-20.9135 L -23.2979,-20.7021 L -23.0865,-20.4445 L -22.9294,-20.1506 L -22.8327,-19.8316 L -22.8,-19.5
 L -22.8327,-19.1683 L -22.9294,-18.8494 L -23.0865,-18.5555 L -23.2979,-18.2979 L -23.5555,-18.0865 L -23.8494,-17.9294
 L -24.1683,-17.8327 L -24.5,-17.8 z
M -24.8316,21.1673 L -25.1506,21.0706 L -25.4445,20.9135 L -25.7021,20.7021 L -25.9135,20.4445 L -26.0706,20.1506
 L -26.1673,19.8316 L -26.2,19.5 L -26.1673,19.1683 L -26.0706,18.8494 L -25.9135,18.5555 L -25.7021,18.2979
 L -25.4445,18.0865 L -25.1506,17.9294 L -24.8316,17.8327 L -24.5,17.8 L -24.1683,17.8327 L -23.8494,17.9294
 L -23.5555,18.0865 L -23.2979,18.2979 L -23.0865,18.5555 L -22.9294,18.8494 L -22.8327,19.1683 L -22.8,19.5
 L -22.8327,19.8316 L -22.9294,20.1506 L -23.0865,20.4445 L -23.2979,20.7021 L -23.5555,20.9135 L -23.8494,21.0706
 L -24.1683,21.1673 L -24.5,21.2 z
M 83.1683,21.1673 L 82.8494,21.0706 L 82.5555,20.9135 L 82.2979,20.7021 L 82.0865,20.4445 L 81.9294,20.1506
 L 81.8327,19.8316 L 81.8,19.5 L 81.8327,19.1683 L 81.9294,18.8494 L 82.0865,18.5555 L 82.2979,18.2979
 L 82.5555,18.0865 L 82.8494,17.9294 L 83.1683,17.8327 L 83.5,17.8 L 83.8316,17.8327 L 84.1506,17.9294
 L 84.4445,18.0865 L 84.7021,18.2979 L 84.9135,18.5555 L 85.0706,18.8494 L 85.1673,19.1683 L 85.2,19.5
 L 85.1673,19.8316 L 85.0706,20.1506 L 84.9135,20.4445 L 84.7021,20.7021 L 84.4445,20.9135 L 84.1506,21.0706
 L 83.8316,21.1673 L 83.5,21.2 z
M -44.3316,25.4673 L -44.6506,25.3706 L -44.9445,25.2135 L -45.2021,25.0021 L -45.4135,24.7445 L -45.5706,24.4506
 L -45.6673,24.1317 L -45.7,23.8 L -45.6673,23.4683 L -45.5706,23.1494 L -45.4135,22.8555 L -45.2021,22.5979
 L -44.9445,22.3865 L -44.6506,22.2294 L -44.3316,22.1327 L -44,22.1 L -43.6683,22.1327 L -43.3494,22.2294
 L -43.0555,22.3865 L -42.7979,22.5979 L -42.5865,22.8555 L -42.4294,23.1494 L -42.3327,23.4683 L -42.3,23.8
 L -42.3327,24.1317 L -42.4294,24.4506 L -42.5865,24.7445 L -42.7979,25.0021 L -43.0555,25.2135 L -43.3494,25.3706
 L -43.6683,25.4673 L -44,25.5 z
M -68.3316,25.4673 L -68.6506,25.3706 L -68.9445,25.2135 L -69.2021,25.0021 L -69.4135,24.7445 L -69.5706,24.4506
 L -69.6673,24.1317 L -69.7,23.8 L -69.6673,23.4683 L -69.5706,23.1494 L -69.4135,22.8555 L -69.2021,22.5979
 L -68.9445,22.3865 L -68.6506,22.2294 L -68.3316,22.1327 L -68,22.1 L -67.6683,22.1327 L -67.3494,22.2294
 L -67.0555,22.3865 L -66.7979,22.5979 L -66.5865,22.8555 L -66.4294,23.1494 L -66.3327,23.4683 L -66.3,23.8
 L -66.3327,24.1317 L -66.4294,24.4506 L -66.5865,24.7445 L -66.7979,25.0021 L -67.0555,25.2135 L -67.3494,25.3706
 L -67.6683,25.4673 L -68,25.5 z
M -51,83 L -29,83 L -29,89 L -11,89 L -11,83 L 11,83
 L 11,89 L 29,89 L 29,83 L 51,83 L 51,89 L 69,89
 L 69,83 L 96,83 L 96,76.6 L 90,76.6 L 90,70.2 L 96,70.2
 L 96,63.8 L 90,63.8 L 90,57.4 L 96,57.4 L 96,51 L 69,51
 L 69,45 L 51,45 L 51,51 L 29,51 L 29,45 L 11,45
 L 11,51 L -11,51 L -11,45 L -29,45 L -29,51 L -51,51
 L -51,45 L -69,45 L -69,51 L -96,51 L -96,57.4 L -90,57.4
 L -90,63.8 L -96,63.8 L -96,70.2 L -90,70.2 L -90,76.6 L -96,76.6
 L -96,83 L -69,83 L -69,89 L -51,89 z
M 65.9558,71.9316 L 64.9294,71.7274 L 63.9385,71.391 L 63,70.9282 L 62.1299,70.3468 L 61.3431,69.6569
 L 60.6532,68.8701 L 60.0718,68 L 59.609,67.0615 L 59.2726,66.0706 L 59.0684,65.0442 L 59,64
 L 59.0684,62.9558 L 59.2726,61.9295 L 59.609,60.9385 L 60.0718,60 L 60.6532,59.1299 L 61.3431,58.3432
 L 62.1299,57.6532 L 63,57.0718 L 63.9385,56.609 L 64.9294,56.2726 L 65.9558,56.0685 L 67,56
 L 68.0442,56.0685 L 69.0705,56.2726 L 70.0615,56.609 L 71,57.0718 L 71.8701,57.6532 L 72.6568,58.3432
 L 73.3468,59.1299 L 73.9282,60 L 74.391,60.9385 L 74.7274,61.9295 L 74.9315,62.9558 L 75,64
 L 74.9315,65.0442 L 74.7274,66.0706 L 74.391,67.0615 L 73.9282,68 L 73.3468,68.8701 L 72.6568,69.6569
 L 71.8701,70.3468 L 71,70.9282 L 70.0615,71.391 L 69.0705,71.7274 L 68.0442,71.9316 L 67,72
 z
M 33.9558,71.9316 L 32.9294,71.7274 L 31.9385,71.391 L 31,70.9282 L 30.1299,70.3468 L 29.3431,69.6569
 L 28.6532,68.8701 L 28.0718,68 L 27.609,67.0615 L 27.2726,66.0706 L 27.0684,65.0442 L 27,64
 L 27.0684,62.9558 L 27.2726,61.9295 L 27.609,60.9385 L 28.0718,60 L 28.6532,59.1299 L 29.3431,58.3432
 L 30.1299,57.6532 L 31,57.0718 L 31.9385,56.609 L 32.9294,56.2726 L 33.9558,56.0685 L 35,56
 L 36.0442,56.0685 L 37.0705,56.2726 L 38.0615,56.609 L 39,57.0718 L 39.8701,57.6532 L 40.6568,58.3432
 L 41.3468,59.1299 L 41.9282,60 L 42.391,60.9385 L 42.7274,61.9295 L 42.9315,62.9558 L 43,64
 L 42.9315,65.0442 L 42.7274,66.0706 L 42.391,67.0615 L 41.9282,68 L 41.3468,68.8701 L 40.6568,69.6569
 L 39.8701,70.3468 L 39,70.9282 L 38.0615,71.391 L 37.0705,71.7274 L 36.0442,71.9316 L 35,72
 z
M -51,135 L -29,135 L -29,141 L -11,141 L -11,135 L 11,135
 L 11,141 L 29,141 L 29,135 L 51,135 L 51,141 L 69,141
 L 69,135 L 96,135 L 96,128.6 L 90,128.6 L 90,122.2 L 96,122.2
 L 96,115.8 L 90,115.8 L 90,109.4 L 96,109.4 L 96,103 L 69,103
 L 69,97 L 51,97 L 51,103 L 29,103 L 29,97 L 11,97
 L 11,103 L -11,103 L -11,97 L -29,97 L -29,103 L -51,103
 L -51,97 L -69,97 L -69,103 L -96,103 L -96,109.4 L -90,109.4
 L -90,115.8 L -96,115.8 L -96,122.2 L -90,122.2 L -90,128.6 L -96,128.6
 L -96,135 L -69,135 L -69,141 L -51,141 z
M 67,130.9 L 67,120.9 L 83,120.9 L 83,130.9 z
" stroke="black" fill="lightgray" stroke-width="0.5"/>
</svg>
